<svg width="81" height="26" fill="none" xmlns="http://www.w3.org/2000/svg"><path d="M.557 25V1.727h14.432V4.75H4.069v7.09h9.886v3.012H4.067V25H.557zm28.44-7.239V7.545h3.41V25h-3.342v-3.023h-.181c-.402.932-1.046 1.709-1.932 2.33-.88.614-1.974.92-3.284.92-1.122 0-2.114-.246-2.978-.738-.856-.5-1.53-1.239-2.022-2.216-.485-.977-.728-2.186-.728-3.625V7.545h3.398V18.24c0 1.189.33 2.136.989 2.84.659.705 1.515 1.057 2.568 1.057.636 0 1.269-.159 1.898-.477.636-.318 1.163-.8 1.58-1.443.423-.644.632-1.462.624-2.455zM36.972 25V7.545h3.284v2.773h.181a4.22 4.22 0 011.682-2.216c.81-.545 1.728-.818 2.75-.818a14.526 14.526 0 011.444.08v3.25a6.119 6.119 0 00-.728-.125 6.943 6.943 0 00-1.045-.08c-.803 0-1.52.17-2.148.511-.621.334-1.114.8-1.477 1.398-.364.591-.546 1.265-.546 2.023V25h-3.397zM52.65 14.636V25h-3.398V7.545h3.261v2.841h.216a4.989 4.989 0 011.887-2.227c.863-.56 1.95-.84 3.26-.84 1.19 0 2.232.25 3.126.75.894.492 1.587 1.226 2.08 2.204.492.977.738 2.185.738 3.625V25h-3.398V14.307c0-1.265-.33-2.254-.988-2.966-.66-.72-1.565-1.08-2.716-1.08-.788 0-1.489.17-2.102.512-.607.34-1.088.84-1.444 1.5-.348.651-.522 1.44-.522 2.363zM68.378 25V7.545h3.398V25h-3.398zm1.716-20.148a2.16 2.16 0 01-1.523-.59c-.417-.402-.625-.88-.625-1.432 0-.561.208-1.038.625-1.432a2.138 2.138 0 011.523-.603c.59 0 1.094.201 1.511.603.424.394.636.87.636 1.432 0 .553-.212 1.03-.636 1.431a2.12 2.12 0 01-1.511.591z" fill="#fff"/><path d="M78.585 25.216c-.621 0-1.155-.22-1.602-.66a2.2 2.2 0 01-.67-1.613c0-.621.223-1.151.67-1.59a2.183 2.183 0 011.602-.671c.621 0 1.156.223 1.603.67.447.44.67.97.67 1.591 0 .417-.106.8-.318 1.148-.205.34-.478.613-.818.818-.341.205-.72.307-1.137.307z" fill="#fff" fill-opacity=".28"/></svg>