<svg width="22" height="20" fill="none" xmlns="http://www.w3.org/2000/svg"><path d="M0 3.884C0 2.105 1.231.663 2.75.663h16.5c1.517 0 2.75 1.441 2.75 3.22v12.878c0 1.776-1.233 3.22-2.75 3.22H2.75c-1.519 0-2.75-1.444-2.75-3.22V3.883zm2.063 0v1.111l7.412 7.124c.885.855 2.165.855 3.05 0l7.412-7.124V3.838c0-.397-.309-.805-.687-.805H2.75c-.38 0-.688.408-.688.805v.046zm0 4.235v8.643c0 .443.307.805.687.805h16.5c.378 0 .688-.362.688-.805V8.12l-6.102 5.866c-1.65 1.585-4.022 1.585-5.71 0L2.062 8.12z" fill="#CFCFCF"/></svg>