<svg width="29" height="29" fill="none" xmlns="http://www.w3.org/2000/svg"><path d="M28.213.985c.572.379.872 1.032.765 1.686L25.353 25.15a1.73 1.73 0 01-.907 1.243c-.487.26-1.07.292-1.586.087l-7.153-2.837-2.272 4.025c-.294.524-.923.79-1.529.643-.606-.145-1.03-.664-1.03-1.259v-5.187c0-.286.101-.567.288-.794l9.363-11.488c.142-.383-.368-.772-.736-.454L9.65 17.876l-1.81 1.563a1.878 1.878 0 01-1.914.313L1.111 17.84c-.635-.254-1.065-.827-1.105-1.486-.04-.66.312-1.28.912-1.61L26.293.91a1.892 1.892 0 011.926.075h-.006z" fill="#fff"/></svg>