<svg width="17" height="15" fill="none" xmlns="http://www.w3.org/2000/svg"><path d="M15.252 4.037c.011.151.011.302.011.453 0 4.606-3.505 9.913-9.913 9.913A9.846 9.846 0 010 12.84c.28.033.55.044.841.044 1.63 0 3.129-.55 4.326-1.489a3.49 3.49 0 01-3.258-2.416c.216.032.432.054.658.054.313 0 .626-.043.917-.119A3.485 3.485 0 01.69 5.493V5.45c.464.26 1.004.421 1.575.443A3.482 3.482 0 01.712 2.99c0-.647.172-1.24.475-1.758A9.904 9.904 0 008.37 4.879a3.933 3.933 0 01-.087-.798A3.483 3.483 0 0111.768.596c1.003 0 1.91.421 2.546 1.1a6.86 6.86 0 002.211-.84 3.475 3.475 0 01-1.531 1.92A6.984 6.984 0 0017 2.235a7.488 7.488 0 01-1.748 1.801z" fill="#000"/></svg>